<svg width="1012" height="280" xmlns="http://www.w3.org/2000/svg" viewBox="0 0 1012 280" role="img" aria-label="Talent-X"><title>Talent-X</title><defs><linearGradient id="txGradL" x1="0" y1="0" x2="1" y2="1"><stop offset="0" stop-color="#5BAEFF"></stop><stop offset="0.55" stop-color="#2E7CF6"></stop><stop offset="1" stop-color="#1B5BE0"></stop></linearGradient></defs><g transform="translate(70,10.00)"><g transform="skewX(-7.0)"><g><g transform="translate(0.00,200.00) scale(0.20000,-0.20000)"><path d="M567 702V565H381V0H210V565H24V702Z" fill="#1F4E79"></path></g>
<g transform="translate(117.00,200.00) scale(0.20000,-0.20000)"><path d="M274 566Q333 566 377.5 542.0Q422 518 446 479V558H617V0H446V79Q421 40 376.5 16.0Q332 -8 273 -8Q205 -8 149.0 27.5Q93 63 60.5 128.5Q28 194 28 280Q28 366 60.5 431.0Q93 496 149.0 531.0Q205 566 274 566ZM324 417Q273 417 237.5 380.5Q202 344 202 280Q202 216 237.5 178.5Q273 141 324 141Q375 141 410.5 178.0Q446 215 446 279Q446 343 410.5 380.0Q375 417 324 417Z" fill="#1F4E79"></path></g>
<g transform="translate(251.60,200.00) scale(0.20000,-0.20000)"><path d="M233 740V0H62V740Z" fill="#1F4E79"></path></g>
<g transform="translate(309.40,200.00) scale(0.20000,-0.20000)"><path d="M585 238H198Q202 186 231.5 158.5Q261 131 304 131Q368 131 393 185H575Q561 130 524.5 86.0Q488 42 433.0 17.0Q378 -8 310 -8Q228 -8 164.0 27.0Q100 62 64.0 127.0Q28 192 28 279Q28 366 63.5 431.0Q99 496 163.0 531.0Q227 566 310 566Q391 566 454.0 532.0Q517 498 552.5 435.0Q588 372 588 288Q588 264 585 238ZM413 333Q413 377 383.0 403.0Q353 429 308 429Q265 429 235.5 404.0Q206 379 199 333Z" fill="#1F4E79"></path></g>
<g transform="translate(431.40,200.00) scale(0.20000,-0.20000)"><path d="M617 326V0H447V303Q447 359 418.0 390.0Q389 421 340 421Q291 421 262.0 390.0Q233 359 233 303V0H62V558H233V484Q259 521 303.0 542.5Q347 564 402 564Q500 564 558.5 500.5Q617 437 617 326Z" fill="#1F4E79"></path></g>
<g transform="translate(565.00,200.00) scale(0.20000,-0.20000)"><path d="M373 145V0H286Q193 0 141.0 45.5Q89 91 89 194V416H21V558H89V694H260V558H372V416H260V192Q260 167 272.0 156.0Q284 145 312 145Z" fill="#1F4E79"></path></g>
<g transform="translate(645.00,200.00) scale(0.20000,-0.20000)"><path d="M492 422V280H52V422Z" fill="#1F4E79"></path></g>
<path d="M 759.80 55.80 L 792.80 55.80 L 871.80 204.20 L 838.80 204.20 Z M 838.80 55.80 L 871.80 55.80 L 792.80 204.20 L 759.80 204.20 Z" fill="url(#txGradL)" fill-rule="nonzero"></path></g></g></g></svg>